<?xml version="1.0" encoding="utf-8" standalone="no"?>
<!DOCTYPE svg PUBLIC "-//W3C//DTD SVG 1.1//EN"
  "http://www.w3.org/Graphics/SVG/1.1/DTD/svg11.dtd">
<svg xmlns:xlink="http://www.w3.org/1999/xlink" width="288pt" height="288pt" viewBox="0 0 288 288" xmlns="http://www.w3.org/2000/svg" version="1.1">
 <metadata>
  <rdf:RDF xmlns:dc="http://purl.org/dc/elements/1.1/" xmlns:cc="http://creativecommons.org/ns#" xmlns:rdf="http://www.w3.org/1999/02/22-rdf-syntax-ns#">
   <cc:Work>
    <dc:type rdf:resource="http://purl.org/dc/dcmitype/StillImage"/>
    <dc:date>2024-11-02T02:06:30.386414</dc:date>
    <dc:format>image/svg+xml</dc:format>
    <dc:creator>
     <cc:Agent>
      <dc:title>Matplotlib v3.7.5, https://matplotlib.org/</dc:title>
     </cc:Agent>
    </dc:creator>
   </cc:Work>
  </rdf:RDF>
 </metadata>
 <defs>
  <style type="text/css">*{stroke-linejoin: round; stroke-linecap: butt}</style>
 </defs>
 <g id="figure_1">
  <g id="patch_1">
   <path d="M 0 288 
L 288 288 
L 288 0 
L 0 0 
z
" style="fill: #ffffff"/>
  </g>
  <g id="axes_1">
   <g id="patch_2">
    <path d="M 36 256.32 
L 259.2 256.32 
L 259.2 34.56 
L 36 34.56 
z
" style="fill: #ffffff"/>
   </g>
   <g id="matplotlib.axis_1">
    <g id="xtick_1">
     <g id="line2d_1">
      <defs>
       <path id="ma34967b988" d="M 0 0 
L 0 3.5 
" style="stroke: #262626; stroke-width: 0.8"/>
      </defs>
      <g>
       <use xlink:href="#ma34967b988" x="36" y="256.32" style="fill: #262626; stroke: #262626; stroke-width: 0.8"/>
      </g>
     </g>
     <g id="text_1">
      <text style="fill: #262626; font: 10px 'Arial', 'DejaVu Sans', 'Liberation Sans', 'Bitstream Vera Sans', sans-serif; text-anchor: middle" x="36" y="270.477813" transform="rotate(-0 36 270.477813)">0.0</text>
     </g>
    </g>
    <g id="xtick_2">
     <g id="line2d_2">
      <g>
       <use xlink:href="#ma34967b988" x="80.64" y="256.32" style="fill: #262626; stroke: #262626; stroke-width: 0.8"/>
      </g>
     </g>
     <g id="text_2">
      <text style="fill: #262626; font: 10px 'Arial', 'DejaVu Sans', 'Liberation Sans', 'Bitstream Vera Sans', sans-serif; text-anchor: middle" x="80.64" y="270.477813" transform="rotate(-0 80.64 270.477813)">0.2</text>
     </g>
    </g>
    <g id="xtick_3">
     <g id="line2d_3">
      <g>
       <use xlink:href="#ma34967b988" x="125.28" y="256.32" style="fill: #262626; stroke: #262626; stroke-width: 0.8"/>
      </g>
     </g>
     <g id="text_3">
      <text style="fill: #262626; font: 10px 'Arial', 'DejaVu Sans', 'Liberation Sans', 'Bitstream Vera Sans', sans-serif; text-anchor: middle" x="125.28" y="270.477813" transform="rotate(-0 125.28 270.477813)">0.4</text>
     </g>
    </g>
    <g id="xtick_4">
     <g id="line2d_4">
      <g>
       <use xlink:href="#ma34967b988" x="169.92" y="256.32" style="fill: #262626; stroke: #262626; stroke-width: 0.8"/>
      </g>
     </g>
     <g id="text_4">
      <text style="fill: #262626; font: 10px 'Arial', 'DejaVu Sans', 'Liberation Sans', 'Bitstream Vera Sans', sans-serif; text-anchor: middle" x="169.92" y="270.477813" transform="rotate(-0 169.92 270.477813)">0.6</text>
     </g>
    </g>
    <g id="xtick_5">
     <g id="line2d_5">
      <g>
       <use xlink:href="#ma34967b988" x="214.56" y="256.32" style="fill: #262626; stroke: #262626; stroke-width: 0.8"/>
      </g>
     </g>
     <g id="text_5">
      <text style="fill: #262626; font: 10px 'Arial', 'DejaVu Sans', 'Liberation Sans', 'Bitstream Vera Sans', sans-serif; text-anchor: middle" x="214.56" y="270.477813" transform="rotate(-0 214.56 270.477813)">0.8</text>
     </g>
    </g>
    <g id="xtick_6">
     <g id="line2d_6">
      <g>
       <use xlink:href="#ma34967b988" x="259.2" y="256.32" style="fill: #262626; stroke: #262626; stroke-width: 0.8"/>
      </g>
     </g>
     <g id="text_6">
      <text style="fill: #262626; font: 10px 'Arial', 'DejaVu Sans', 'Liberation Sans', 'Bitstream Vera Sans', sans-serif; text-anchor: middle" x="259.2" y="270.477813" transform="rotate(-0 259.2 270.477813)">1.0</text>
     </g>
    </g>
    <g id="text_7">
     <text style="fill: #262626; font: 10px 'Arial', 'DejaVu Sans', 'Liberation Sans', 'Bitstream Vera Sans', sans-serif; text-anchor: middle" x="147.6" y="283.623125" transform="rotate(-0 147.6 283.623125)">False positive rate</text>
    </g>
   </g>
   <g id="matplotlib.axis_2">
    <g id="ytick_1">
     <g id="line2d_7">
      <defs>
       <path id="m31a03f34a6" d="M 0 0 
L -3.5 0 
" style="stroke: #262626; stroke-width: 0.8"/>
      </defs>
      <g>
       <use xlink:href="#m31a03f34a6" x="36" y="256.32" style="fill: #262626; stroke: #262626; stroke-width: 0.8"/>
      </g>
     </g>
     <g id="text_8">
      <text style="fill: #262626; font: 10px 'Arial', 'DejaVu Sans', 'Liberation Sans', 'Bitstream Vera Sans', sans-serif; text-anchor: end" x="29" y="259.898906" transform="rotate(-0 29 259.898906)">0.0</text>
     </g>
    </g>
    <g id="ytick_2">
     <g id="line2d_8">
      <g>
       <use xlink:href="#m31a03f34a6" x="36" y="211.968" style="fill: #262626; stroke: #262626; stroke-width: 0.8"/>
      </g>
     </g>
     <g id="text_9">
      <text style="fill: #262626; font: 10px 'Arial', 'DejaVu Sans', 'Liberation Sans', 'Bitstream Vera Sans', sans-serif; text-anchor: end" x="29" y="215.546906" transform="rotate(-0 29 215.546906)">0.2</text>
     </g>
    </g>
    <g id="ytick_3">
     <g id="line2d_9">
      <g>
       <use xlink:href="#m31a03f34a6" x="36" y="167.616" style="fill: #262626; stroke: #262626; stroke-width: 0.8"/>
      </g>
     </g>
     <g id="text_10">
      <text style="fill: #262626; font: 10px 'Arial', 'DejaVu Sans', 'Liberation Sans', 'Bitstream Vera Sans', sans-serif; text-anchor: end" x="29" y="171.194906" transform="rotate(-0 29 171.194906)">0.4</text>
     </g>
    </g>
    <g id="ytick_4">
     <g id="line2d_10">
      <g>
       <use xlink:href="#m31a03f34a6" x="36" y="123.264" style="fill: #262626; stroke: #262626; stroke-width: 0.8"/>
      </g>
     </g>
     <g id="text_11">
      <text style="fill: #262626; font: 10px 'Arial', 'DejaVu Sans', 'Liberation Sans', 'Bitstream Vera Sans', sans-serif; text-anchor: end" x="29" y="126.842906" transform="rotate(-0 29 126.842906)">0.6</text>
     </g>
    </g>
    <g id="ytick_5">
     <g id="line2d_11">
      <g>
       <use xlink:href="#m31a03f34a6" x="36" y="78.912" style="fill: #262626; stroke: #262626; stroke-width: 0.8"/>
      </g>
     </g>
     <g id="text_12">
      <text style="fill: #262626; font: 10px 'Arial', 'DejaVu Sans', 'Liberation Sans', 'Bitstream Vera Sans', sans-serif; text-anchor: end" x="29" y="82.490906" transform="rotate(-0 29 82.490906)">0.8</text>
     </g>
    </g>
    <g id="ytick_6">
     <g id="line2d_12">
      <g>
       <use xlink:href="#m31a03f34a6" x="36" y="34.56" style="fill: #262626; stroke: #262626; stroke-width: 0.8"/>
      </g>
     </g>
     <g id="text_13">
      <text style="fill: #262626; font: 10px 'Arial', 'DejaVu Sans', 'Liberation Sans', 'Bitstream Vera Sans', sans-serif; text-anchor: end" x="29" y="38.138906" transform="rotate(-0 29 38.138906)">1.0</text>
     </g>
    </g>
    <g id="text_14">
     <text style="fill: #262626; font: 10px 'Arial', 'DejaVu Sans', 'Liberation Sans', 'Bitstream Vera Sans', sans-serif; text-anchor: middle" x="9.1125" y="145.44" transform="rotate(-90 9.1125 145.44)">True positive rate</text>
    </g>
   </g>
   <g id="line2d_13">
    <path d="M 36 256.32 
L 36.0837 138.7872 
L 36.1116 138.7872 
L 36.1953 129.69504 
L 36.2232 129.69504 
L 36.3069 123.8184 
L 36.3348 123.8184 
L 36.3906 119.60496 
L 36.4464 119.60496 
L 36.5301 117.27648 
L 36.558 117.27648 
L 36.6417 112.61952 
L 36.6696 112.61952 
L 36.7254 110.06928 
L 36.7812 110.06928 
L 36.8649 108.73872 
L 36.8928 108.73872 
L 36.9765 106.74288 
L 37.0044 106.74288 
L 37.0881 105.30144 
L 37.116 105.30144 
L 37.1997 103.08384 
L 37.2276 103.08384 
L 37.3113 101.30976 
L 37.3392 101.30976 
L 37.4229 98.98128 
L 37.4787 98.98128 
L 37.5624 98.09424 
L 37.6182 98.09424 
L 37.7019 96.6528 
L 37.7298 96.6528 
L 37.8135 95.10048 
L 37.8693 94.9896 
L 37.953 92.66112 
L 37.9809 92.66112 
L 38.0646 91.77408 
L 38.1483 91.6632 
L 38.232 90.33264 
L 38.2599 90.33264 
L 38.3157 88.11504 
L 38.3715 88.11504 
L 38.4273 87.44976 
L 38.4831 87.44976 
L 38.5668 87.00624 
L 38.5947 87.00624 
L 38.6784 86.56272 
L 38.7063 86.56272 
L 38.79 83.79072 
L 38.8179 83.79072 
L 38.9016 81.90576 
L 38.9295 81.90576 
L 39.0132 80.0208 
L 39.0411 80.0208 
L 39.0969 79.24464 
L 39.2922 79.24464 
L 39.348 78.13584 
L 39.4038 78.13584 
L 39.4596 77.47056 
L 39.5712 77.35968 
L 39.6549 77.02704 
L 39.7107 76.91616 
L 39.7944 76.6944 
L 39.8223 76.6944 
L 39.906 75.69648 
L 39.9339 75.69648 
L 39.9897 75.25296 
L 40.0455 75.25296 
L 40.1013 74.58768 
L 40.2129 74.4768 
L 40.2966 73.58976 
L 40.3524 73.58976 
L 40.3803 72.92448 
L 40.464 72.92448 
L 40.4919 72.37008 
L 40.5756 72.37008 
L 40.6593 71.37216 
L 40.7709 71.26128 
L 40.7988 71.03952 
L 40.8825 71.03952 
L 40.9104 70.596 
L 40.9941 70.596 
L 41.0778 69.70896 
L 41.1057 69.70896 
L 41.1615 68.9328 
L 41.4963 68.82192 
L 41.58 68.26752 
L 41.6358 68.15664 
L 41.6916 67.71312 
L 41.7474 67.71312 
L 41.8032 66.38256 
L 41.9985 66.38256 
L 42.0822 64.83024 
L 42.138 64.83024 
L 42.2217 63.27792 
L 42.2496 63.27792 
L 42.2775 62.39088 
L 42.417 62.28 
L 42.417 62.16912 
L 42.7239 62.16912 
L 42.8076 61.61472 
L 42.8355 61.61472 
L 42.9192 61.28208 
L 43.0029 61.28208 
L 43.0866 60.0624 
L 43.1145 60.0624 
L 43.1145 59.72976 
L 43.533 59.61888 
L 43.6167 59.17536 
L 43.6725 59.06448 
L 43.7562 58.84272 
L 43.7841 58.84272 
L 43.8678 58.3992 
L 43.9236 58.3992 
L 44.0073 57.95568 
L 44.091 57.8448 
L 44.091 57.73392 
L 44.3142 57.62304 
L 44.37 56.736 
L 44.5932 56.62512 
L 44.6769 56.07072 
L 44.8722 55.95984 
L 44.9559 55.40544 
L 45.0954 55.40544 
L 45.1791 55.0728 
L 45.2628 54.96192 
L 45.3186 54.62928 
L 45.4302 54.5184 
L 45.486 54.29664 
L 45.6813 54.18576 
L 45.7092 53.85312 
L 45.7929 53.85312 
L 45.8208 53.52048 
L 46.0161 53.4096 
L 46.0161 53.29872 
L 46.2672 53.18784 
L 46.2951 52.96608 
L 46.4346 52.96608 
L 46.4904 52.52256 
L 46.8531 52.41168 
L 46.9647 52.18992 
L 47.1321 52.07904 
L 47.16 51.7464 
L 47.4669 51.63552 
L 47.4669 51.52464 
L 47.6064 51.52464 
L 47.6901 50.97024 
L 47.8854 50.85936 
L 47.8854 50.74848 
L 48.1365 50.6376 
L 48.1923 50.30496 
L 48.3876 50.19408 
L 48.3876 50.0832 
L 48.7503 49.97232 
L 48.8061 49.41792 
L 49.0293 49.30704 
L 49.0293 49.19616 
L 49.3362 49.08528 
L 49.4199 48.53088 
L 49.7268 48.42 
L 49.7826 47.75472 
L 49.95 47.64384 
L 49.95 47.53296 
L 50.5917 47.42208 
L 50.5917 47.20032 
L 50.7312 47.08944 
L 50.8149 46.7568 
L 50.8428 46.7568 
L 50.8428 46.53504 
L 51.2892 46.53504 
L 51.3729 46.2024 
L 51.4845 46.09152 
L 51.5682 45.75888 
L 51.624 45.648 
L 51.624 45.42624 
L 51.7635 45.31536 
L 51.7635 45.20448 
L 51.9309 45.0936 
L 51.9309 44.98272 
L 52.2657 44.87184 
L 52.2657 44.76096 
L 52.5726 44.65008 
L 52.5726 44.5392 
L 52.7121 44.5392 
L 52.7121 44.31744 
L 52.9632 44.20656 
L 52.9632 43.9848 
L 53.1027 43.9848 
L 53.1864 43.54128 
L 53.4096 43.54128 
L 53.4933 42.98688 
L 53.6607 42.876 
L 53.6886 42.54336 
L 54.1629 42.43248 
L 54.2466 42.09984 
L 54.4698 41.98896 
L 54.4977 41.7672 
L 54.5535 41.7672 
L 54.6651 41.65632 
L 54.6651 41.54544 
L 55.2231 41.43456 
L 55.251 41.2128 
L 55.809 41.10192 
L 55.8648 40.88016 
L 56.1996 40.76928 
L 56.2554 40.54752 
L 56.4228 40.43664 
L 56.5902 39.99312 
L 56.925 39.88224 
L 56.925 39.77136 
L 57.5388 39.66048 
L 57.5388 39.5496 
L 58.6269 39.43872 
L 58.6269 39.32784 
L 59.4639 39.21696 
L 59.4639 38.9952 
L 60.5241 38.88432 
L 60.5241 38.66256 
L 60.8031 38.66256 
L 60.8031 38.4408 
L 60.9984 38.32992 
L 61.0821 37.99728 
L 61.389 37.99728 
L 61.389 37.77552 
L 63.7326 37.66464 
L 63.7326 37.55376 
L 65.6856 37.44288 
L 65.6856 37.332 
L 68.5593 37.22112 
L 68.5593 37.11024 
L 69.6474 36.99936 
L 69.6474 36.88848 
L 70.317 36.7776 
L 70.317 36.66672 
L 70.875 36.55584 
L 70.875 36.44496 
L 72.2421 36.33408 
L 72.2421 36.2232 
L 72.8001 36.11232 
L 72.828 36.00144 
L 74.1393 35.89056 
L 74.1393 35.77968 
L 77.292 35.6688 
L 77.292 35.55792 
L 78.5196 35.44704 
L 78.5196 35.33616 
L 79.6635 35.22528 
L 79.6635 35.1144 
L 84.5181 35.00352 
L 84.5181 34.89264 
L 106.1127 34.78176 
L 106.1406 34.67088 
L 259.2 34.56 
L 259.2 34.56 
" clip-path="url(#p8b845b3b18)" style="fill: none; stroke: #1b9e77; stroke-opacity: 0.8; stroke-width: 2; stroke-linecap: round"/>
   </g>
   <g id="line2d_14">
    <path d="M 36 256.32 
L 36.0837 153.64512 
L 36.1116 153.64512 
L 36.1953 146.88144 
L 36.2232 146.88144 
L 36.3069 141.67008 
L 36.3348 141.67008 
L 36.4185 133.90848 
L 36.4464 133.90848 
L 36.5301 125.4816 
L 36.558 125.4816 
L 36.6417 122.59872 
L 36.6696 122.59872 
L 36.7254 121.15728 
L 36.7812 121.15728 
L 36.8649 117.27648 
L 36.8928 117.27648 
L 36.9765 114.61536 
L 37.0044 114.61536 
L 37.0881 111.6216 
L 37.116 111.6216 
L 37.1997 110.40192 
L 37.2276 110.40192 
L 37.3113 107.62992 
L 37.395 107.62992 
L 37.4787 105.5232 
L 37.5066 105.5232 
L 37.5903 103.52736 
L 37.6182 103.52736 
L 37.7019 99.86832 
L 37.7577 99.86832 
L 37.8135 99.09216 
L 37.8972 99.09216 
L 37.9809 97.65072 
L 38.0088 97.65072 
L 38.0925 95.98752 
L 38.1204 95.98752 
L 38.2041 91.88496 
L 38.232 91.88496 
L 38.3157 91.21968 
L 38.4552 91.1088 
L 38.5389 88.8912 
L 38.5668 88.8912 
L 38.6505 88.3368 
L 38.6784 88.3368 
L 38.7621 86.6736 
L 38.79 86.6736 
L 38.8737 85.12128 
L 38.9853 85.0104 
L 39.069 83.23632 
L 39.1248 83.23632 
L 39.1806 80.90784 
L 39.2364 80.90784 
L 39.3201 80.35344 
L 39.348 80.35344 
L 39.4317 79.13376 
L 39.5154 79.13376 
L 39.5712 78.02496 
L 39.627 78.02496 
L 39.7107 77.35968 
L 39.7665 77.2488 
L 39.8502 76.36176 
L 39.9339 76.25088 
L 40.0176 75.47472 
L 40.1571 75.47472 
L 40.185 74.80944 
L 40.3803 74.69856 
L 40.4361 73.368 
L 40.5477 73.368 
L 40.6314 72.70272 
L 40.7151 72.59184 
L 40.743 72.03744 
L 40.8546 71.92656 
L 40.9383 71.48304 
L 40.9662 71.48304 
L 41.0499 70.596 
L 41.0778 70.596 
L 41.1615 69.93072 
L 41.1894 69.93072 
L 41.2452 69.59808 
L 41.2731 69.59808 
L 41.6358 68.48928 
L 41.6916 68.48928 
L 41.7195 68.04576 
L 41.8311 67.93488 
L 41.9148 67.60224 
L 41.9427 67.60224 
L 42.0264 66.7152 
L 42.1101 66.60432 
L 42.1938 66.1608 
L 42.3054 66.04992 
L 42.3612 65.6064 
L 42.417 65.6064 
L 42.4728 65.16288 
L 42.7239 65.052 
L 42.7239 64.94112 
L 42.8355 64.94112 
L 42.9192 64.05408 
L 43.0308 63.9432 
L 43.0308 63.83232 
L 43.2261 63.72144 
L 43.3098 62.8344 
L 43.3377 62.8344 
L 43.4214 61.94736 
L 43.6167 61.94736 
L 43.6446 61.61472 
L 43.812 61.50384 
L 43.8957 61.1712 
L 44.0073 61.06032 
L 44.0073 60.94944 
L 44.1189 60.94944 
L 44.1189 60.72768 
L 44.4258 60.6168 
L 44.5095 60.17328 
L 44.649 60.0624 
L 44.7327 59.72976 
L 44.928 59.61888 
L 44.9838 59.17536 
L 45.207 59.06448 
L 45.2349 58.73184 
L 45.3744 58.73184 
L 45.4581 58.06656 
L 45.6534 57.95568 
L 45.6813 57.62304 
L 45.8208 57.62304 
L 45.9045 57.2904 
L 45.9882 57.17952 
L 45.9882 57.06864 
L 46.2393 56.95776 
L 46.2951 56.62512 
L 46.4904 56.51424 
L 46.5183 56.1816 
L 46.7694 56.07072 
L 46.7694 55.95984 
L 46.9089 55.95984 
L 46.9647 55.0728 
L 47.0205 55.0728 
L 47.1042 54.74016 
L 47.2995 54.62928 
L 47.3832 54.18576 
L 47.439 54.18576 
L 47.439 53.964 
L 47.7738 53.85312 
L 47.8296 53.29872 
L 47.9133 53.18784 
L 47.9412 52.96608 
L 48.1365 52.8552 
L 48.1365 52.74432 
L 48.3876 52.63344 
L 48.4713 51.96816 
L 48.7503 51.96816 
L 48.7503 51.63552 
L 49.2804 51.52464 
L 49.2804 51.41376 
L 49.671 51.30288 
L 49.7268 50.97024 
L 49.8663 50.85936 
L 49.95 50.41584 
L 50.0895 50.30496 
L 50.0895 50.19408 
L 50.2848 50.0832 
L 50.2848 49.97232 
L 50.9823 49.86144 
L 50.9823 49.75056 
L 51.2613 49.63968 
L 51.345 49.41792 
L 51.7077 49.30704 
L 51.7356 48.9744 
L 52.1541 48.86352 
L 52.1541 48.64176 
L 52.3494 48.53088 
L 52.3494 48.42 
L 52.5726 48.30912 
L 52.5726 48.19824 
L 52.8795 48.08736 
L 52.8795 47.97648 
L 53.1027 47.8656 
L 53.1585 47.53296 
L 53.3538 47.42208 
L 53.3538 47.3112 
L 53.6607 47.20032 
L 53.7165 46.7568 
L 53.9397 46.64592 
L 53.9397 46.53504 
L 54.3024 46.42416 
L 54.3024 46.31328 
L 54.693 46.2024 
L 54.7209 45.98064 
L 54.8883 45.86976 
L 54.8883 45.75888 
L 55.1952 45.648 
L 55.1952 45.53712 
L 55.3347 45.53712 
L 55.3347 45.31536 
L 55.6137 45.20448 
L 55.6137 44.98272 
L 55.9485 44.98272 
L 56.0322 44.65008 
L 56.367 44.5392 
L 56.367 44.42832 
L 56.8134 44.31744 
L 56.8971 43.87392 
L 57.0645 43.87392 
L 57.0645 43.65216 
L 57.8178 43.54128 
L 57.8178 43.31952 
L 58.2363 43.20864 
L 58.2363 43.09776 
L 58.9617 42.98688 
L 59.0175 42.76512 
L 59.6871 42.65424 
L 59.6871 42.54336 
L 60.831 42.43248 
L 60.831 42.21072 
L 61.0263 42.09984 
L 61.0263 41.98896 
L 61.2495 41.87808 
L 61.2495 41.7672 
L 61.8912 41.65632 
L 61.8912 41.54544 
L 62.226 41.43456 
L 62.226 41.2128 
L 63.5931 41.10192 
L 63.5931 40.99104 
L 63.7326 40.88016 
L 63.7326 40.76928 
L 64.5417 40.76928 
L 64.5417 40.54752 
L 65.1276 40.43664 
L 65.1276 40.32576 
L 65.3787 40.21488 
L 65.3787 40.104 
L 66.2157 39.99312 
L 66.2715 39.77136 
L 66.4947 39.66048 
L 66.4947 39.5496 
L 68.1966 39.43872 
L 68.1966 39.32784 
L 70.7076 39.21696 
L 70.7076 39.10608 
L 71.9631 38.9952 
L 71.9631 38.88432 
L 72.4374 38.77344 
L 72.4374 38.66256 
L 72.9954 38.55168 
L 72.9954 38.4408 
L 73.386 38.32992 
L 73.386 38.21904 
L 75.1716 38.10816 
L 75.1716 37.99728 
L 75.8133 37.8864 
L 75.8133 37.77552 
L 76.3434 37.66464 
L 76.3434 37.55376 
L 77.7105 37.44288 
L 77.7105 37.332 
L 78.1011 37.332 
L 78.1011 37.11024 
L 80.2215 36.99936 
L 80.2215 36.88848 
L 88.5078 36.7776 
L 88.5636 36.55584 
L 105.75 36.44496 
L 105.75 36.33408 
L 108.1215 36.2232 
L 108.1215 36.11232 
L 110.5488 36.00144 
L 110.5488 35.89056 
L 114.0921 35.77968 
L 114.0921 35.6688 
L 120.9834 35.55792 
L 120.9834 35.44704 
L 121.2345 35.33616 
L 121.2345 35.22528 
L 122.7411 35.1144 
L 122.7411 35.00352 
L 124.3872 34.89264 
L 124.3872 34.78176 
L 166.2651 34.67088 
L 166.2651 34.56 
L 259.2 34.56 
L 259.2 34.56 
" clip-path="url(#p8b845b3b18)" style="fill: none; stroke: #d95f02; stroke-opacity: 0.8; stroke-width: 2; stroke-linecap: round"/>
   </g>
   <g id="line2d_15">
    <path d="M 36 256.32 
L 259.2 34.56 
" clip-path="url(#p8b845b3b18)" style="fill: none; stroke-dasharray: 1,1.65; stroke-dashoffset: 0; stroke: #000000"/>
   </g>
   <g id="patch_3">
    <path d="M 36 256.32 
L 36 34.56 
" style="fill: none; stroke: #262626; stroke-width: 0.8; stroke-linejoin: miter; stroke-linecap: square"/>
   </g>
   <g id="patch_4">
    <path d="M 36 256.32 
L 259.2 256.32 
" style="fill: none; stroke: #262626; stroke-width: 0.8; stroke-linejoin: miter; stroke-linecap: square"/>
   </g>
   <g id="text_15">
    <text style="fill: #262626; font: 12px 'Arial', 'DejaVu Sans', 'Liberation Sans', 'Bitstream Vera Sans', sans-serif; text-anchor: middle" x="147.6" y="28.56" transform="rotate(-0 147.6 28.56)">Test ROC</text>
   </g>
   <g id="legend_1">
    <g id="patch_5">
     <path d="M 96.821875 251.32 
L 252.2 251.32 
Q 254.2 251.32 254.2 249.32 
L 254.2 222.029375 
Q 254.2 220.029375 252.2 220.029375 
L 96.821875 220.029375 
Q 94.821875 220.029375 94.821875 222.029375 
L 94.821875 249.32 
Q 94.821875 251.32 96.821875 251.32 
z
" style="fill: #ffffff; opacity: 0.8; stroke: #cccccc; stroke-linejoin: miter"/>
    </g>
    <g id="line2d_16">
     <path d="M 98.821875 227.687187 
L 108.821875 227.687187 
L 118.821875 227.687187 
" style="fill: none; stroke: #1b9e77; stroke-opacity: 0.8; stroke-width: 2; stroke-linecap: round"/>
    </g>
    <g id="text_16">
     <text style="fill: #262626; font: 10px 'Arial', 'DejaVu Sans', 'Liberation Sans', 'Bitstream Vera Sans', sans-serif; text-anchor: start" x="126.821875" y="231.187187" transform="rotate(-0 126.821875 231.187187)">Random Forest - AUC: 0.99</text>
    </g>
    <g id="line2d_17">
     <path d="M 98.821875 241.8325 
L 108.821875 241.8325 
L 118.821875 241.8325 
" style="fill: none; stroke: #d95f02; stroke-opacity: 0.8; stroke-width: 2; stroke-linecap: round"/>
    </g>
    <g id="text_17">
     <text style="fill: #262626; font: 10px 'Arial', 'DejaVu Sans', 'Liberation Sans', 'Bitstream Vera Sans', sans-serif; text-anchor: start" x="126.821875" y="245.3325" transform="rotate(-0 126.821875 245.3325)">SVM - AUC: 0.98</text>
    </g>
   </g>
  </g>
 </g>
 <defs>
  <clipPath id="p8b845b3b18">
   <rect x="36" y="34.56" width="223.2" height="221.76"/>
  </clipPath>
 </defs>
</svg>
